<svg width="116" height="82" viewBox="0 0 116 82" fill="none" xmlns="http://www.w3.org/2000/svg">
<path d="M103.004 81.3467H13.1166L26.1124 7.63525H116L103.004 81.3467Z" fill="#CFD8DC"/>
<path d="M56.8774 0H27.4607L26.1125 7.63519H57.5943L56.8774 0Z" fill="#CFD8DC"/>
<g opacity="0.1">
<path d="M103.004 81.3467H13.1166L26.1123 7.63525H116L103.004 81.3467Z" fill="black"/>
<path d="M56.8774 0H27.4607L26.1124 7.63519H57.5943L56.8774 0Z" fill="black"/>
</g>
<path d="M24.2863 3.11553C24.0896 2.27127 24.0896 1.39309 24.2863 0.548828C24.483 1.39309 24.483 2.27127 24.2863 3.11553Z" fill="#263238"/>
<path d="M21.6724 3.87043C21.372 3.55894 21.1132 3.20988 20.9024 2.83195C20.6813 2.46189 20.5078 2.06539 20.3861 1.65186C20.6874 1.96151 20.9463 2.30972 21.1561 2.68738C21.3767 3.05874 21.5502 3.45615 21.6724 3.87043Z" fill="#263238"/>
<path d="M19.7843 5.83266C18.9553 5.58061 18.1952 5.14154 17.5627 4.54932C17.9763 4.66953 18.3729 4.84204 18.7428 5.06265C19.1208 5.2748 19.4707 5.53349 19.7843 5.83266Z" fill="#263238"/>
<path d="M19.1235 8.47614C18.2793 8.67285 17.4011 8.67285 16.5568 8.47614C17.4011 8.27944 18.2793 8.27944 19.1235 8.47614Z" fill="#263238"/>
<path d="M19.8905 11.0898C19.5776 11.3887 19.2288 11.6473 18.852 11.8599C18.482 12.0805 18.0855 12.253 17.6719 12.3732C17.9834 12.0728 18.3324 11.814 18.7104 11.6032C19.0797 11.3815 19.4765 11.2089 19.8905 11.0898Z" fill="#263238"/>
<path d="M21.8494 12.9751C21.5982 13.8054 21.1591 14.5666 20.566 15.1996C20.6861 14.7855 20.8597 14.3888 21.0823 14.0195C21.2926 13.6402 21.5504 13.2892 21.8494 12.9751Z" fill="#263238"/>
<path d="M24.4928 13.627C24.5957 14.0468 24.6452 14.478 24.6403 14.9103C24.6467 15.3427 24.5971 15.774 24.4928 16.1937C24.3871 15.7743 24.3375 15.3427 24.3453 14.9103C24.3404 14.478 24.39 14.0468 24.4928 13.627Z" fill="#263238"/>
<path d="M27.1067 12.8863C27.4071 13.1978 27.6659 13.5468 27.8767 13.9248C28.0984 14.2941 28.2709 14.6908 28.39 15.1048C27.797 14.4718 27.3578 13.7106 27.1067 12.8804V12.8863Z" fill="#263238"/>
<path d="M28.9919 10.9097C29.4059 11.0288 29.8026 11.2013 30.172 11.423C30.5499 11.6338 30.899 11.8926 31.2105 12.193C30.7964 12.0739 30.3997 11.9013 30.0304 11.6797C29.6524 11.4689 29.3034 11.2101 28.9919 10.9097Z" fill="#263238"/>
<path d="M29.6438 8.26662C30.4891 8.06998 31.3682 8.06998 32.2135 8.26662C31.3682 8.46326 30.4891 8.46326 29.6438 8.26662Z" fill="#263238"/>
<path d="M28.8887 5.65249C29.201 5.3539 29.5499 5.09615 29.9271 4.88543C30.2958 4.66163 30.6927 4.48801 31.1072 4.36914C30.4742 4.96218 29.713 5.40133 28.8828 5.65249H28.8887Z" fill="#263238"/>
<path d="M26.9268 3.7674C27.0482 3.35425 27.2207 2.95783 27.4401 2.5873C27.6509 2.20938 27.9097 1.86032 28.2101 1.54883C28.091 1.96283 27.9184 2.35954 27.6968 2.72892C27.486 3.10685 27.2272 3.4559 26.9268 3.7674Z" fill="#263238"/>
<path d="M102.871 81.3466H12.7922L0 10.311H90.0823L102.871 81.3466Z" fill="#CFD8DC"/>
<path d="M31.2164 53.7352C33.2841 53.7352 34.9603 52.0591 34.9603 49.9914C34.9603 47.9237 33.2841 46.2476 31.2164 46.2476C29.1488 46.2476 27.4726 47.9237 27.4726 49.9914C27.4726 52.0591 29.1488 53.7352 31.2164 53.7352Z" fill="#263238"/>
<path d="M60.8131 53.7352C62.8807 53.7352 64.5569 52.0591 64.5569 49.9914C64.5569 47.9237 62.8807 46.2476 60.8131 46.2476C58.7454 46.2476 57.0692 47.9237 57.0692 49.9914C57.0692 52.0591 58.7454 53.7352 60.8131 53.7352Z" fill="#263238"/>
<path d="M51.393 54.3343L51.1865 53.9419C51.1688 53.9065 49.2335 50.3309 45.3421 50.3309C41.8018 50.3309 40.9168 53.6971 40.8932 53.8416L40.787 54.2694L39.9284 54.0629L40.0317 53.6322C40.0317 53.5909 41.0879 49.4458 45.3421 49.4458C49.7674 49.4458 51.8828 53.3637 51.9713 53.5319L52.1778 53.9213L51.393 54.3343Z" fill="#263238"/>
</svg>
